# File created by Blade
# Date/Time:  Fri Jan 16 19:14:28 2015
# Frame Rate: 120.000 fps
#------------------------------------------------------
:FULLY-SPECIFIED
:DEGREES
582
root 18.770330 35.606314 -23.638841 -164.515732 -0.928679 -178.527081
Spine -33.210708 2.035247 1.291606
Head 26.513440 -1.555026 -1.374794
LeftShoulder -33.535280 -50.258450 58.547090
LeftArm 35.370472 -64.057219 -7.250316
LeftForeArm -9.936732 0.000000 123.299082
LeftHand -20.115746 -0.000000 -20.060459
LeftHandThumb1 -26.253704 0.000000 33.147579
RightShoulder -22.183273 16.624295 -37.133299
RightArm 33.474993 78.680030 -1.166944
RightForeArm -84.561390 0.000000 140.674217
RightHand -8.262361 -0.000000 42.694157
RightHandThumb1 -24.326973 -0.000000 -32.862282
LeftUpLeg -3.266506 7.243502 -0.041876
LeftLeg -7.702336 -0.000000 0.000000
LeftFoot -22.220626 28.051319 -17.414566
LeftToeBase 23.244835 -0.000000 -0.000000
RightUpLeg -5.126938 -9.469546 1.194966
RightLeg -4.188994 -0.000000 0.000000
RightFoot -21.278285 -22.061165 21.385965
RightToeBase 22.337177 -0.000000 -0.000000
583
root 18.773488 35.606253 -23.640174 -164.512227 -0.925525 -178.531058
Spine -33.222474 2.038797 1.292190
Head 26.504465 -1.545643 -1.392596
LeftShoulder -33.518466 -50.232134 58.467437
LeftArm 35.366995 -64.071743 -7.227200
LeftForeArm -9.958303 0.000000 123.305924
LeftHand -20.107735 0.000000 -19.930683
LeftHandThumb1 -26.253704 0.000000 33.147579
RightShoulder -22.192511 16.629930 -37.151954
RightArm 33.424614 78.673112 -1.208549
RightForeArm -84.588933 -0.000000 140.677356
RightHand -8.223486 -0.000000 42.645250
RightHandThumb1 -24.326973 -0.000000 -32.862282
LeftUpLeg -3.268877 7.241117 -0.040904
LeftLeg -7.700456 -0.000000 0.000000
LeftFoot -22.219372 28.051779 -17.429767
LeftToeBase 23.225806 -0.000000 -0.000000
RightUpLeg -5.124855 -9.460300 1.193819
RightLeg -4.194069 -0.000000 0.000000
RightFoot -21.284020 -22.054521 21.402050
RightToeBase 22.354522 -0.000000 -0.000000
584
root 18.775892 35.606251 -23.642229 -164.508321 -0.917795 -178.534330
Spine -33.237390 2.036773 1.293778
Head 26.492941 -1.538608 -1.400207
LeftShoulder -33.505867 -50.190453 58.422906
LeftArm 35.399233 -64.111167 -7.255422
LeftForeArm -9.978632 -0.000000 123.306434
LeftHand -20.100203 0.000000 -19.924569
LeftHandThumb1 -26.253704 0.000000 33.147579
RightShoulder -22.180867 16.630965 -37.153092
RightArm 33.330591 78.689596 -1.294765
RightForeArm -84.538779 0.000000 140.687732
RightHand -8.255060 -0.000000 42.645383
RightHandThumb1 -24.326973 -0.000000 -32.862282
LeftUpLeg -3.268740 7.242835 -0.040481
LeftLeg -7.699277 -0.000000 0.000000
LeftFoot -22.224301 28.052007 -17.437595
LeftToeBase 23.262399 -0.000000 -0.000000
RightUpLeg -5.121284 -9.468267 1.195189
RightLeg -4.203404 -0.000000 0.000000
RightFoot -21.277932 -22.039438 21.380257
RightToeBase 22.347324 -0.000000 -0.000000
585
root 18.778770 35.605802 -23.643377 -164.503811 -0.905965 -178.534703
Spine -33.247089 2.031162 1.299916
Head 26.478967 -1.527043 -1.414773
LeftShoulder -33.524612 -50.187975 58.438421
LeftArm 35.344329 -64.110437 -7.206763
LeftForeArm -10.043570 0.000000 123.305974
LeftHand -20.118826 -0.000000 -19.878877
LeftHandThumb1 -26.253704 0.000000 33.147579
RightShoulder -22.183306 16.636942 -37.142119
RightArm 33.407560 78.721284 -1.221993
RightForeArm -84.485887 -0.000000 140.687237
RightHand -8.220372 0.000000 42.620958
RightHandThumb1 -24.326973 -0.000000 -32.862282
LeftUpLeg -3.268991 7.268249 -0.042273
LeftLeg -7.702113 -0.000000 0.000000
LeftFoot -22.221146 28.045149 -17.437486
LeftToeBase 23.279166 -0.000000 -0.000000
RightUpLeg -5.123409 -9.462550 1.198187
RightLeg -4.209127 -0.000000 0.000000
RightFoot -21.276983 -22.045234 21.376308
RightToeBase 22.381452 -0.000000 -0.000000
586
root 18.781465 35.605567 -23.644865 -164.499309 -0.905200 -178.533549
Spine -33.257965 2.023353 1.307593
Head 26.467352 -1.515733 -1.425135
LeftShoulder -33.560566 -50.214738 58.489737
LeftArm 35.306948 -64.095100 -7.187110
LeftForeArm -10.136998 0.000000 123.305766
LeftHand -20.155166 0.000000 -19.914260
LeftHandThumb1 -26.253704 0.000000 33.147579
RightShoulder -22.197019 16.651930 -37.153711
RightArm 33.488964 78.705813 -1.130647
RightForeArm -84.457454 -0.000000 140.698418
RightHand -8.264875 -0.000000 42.571691
RightHandThumb1 -24.326973 -0.000000 -32.862282
LeftUpLeg -3.263363 7.244428 -0.033348
LeftLeg -7.715379 -0.000000 0.000000
LeftFoot -22.215819 28.068192 -17.438535
LeftToeBase 23.252181 -0.000000 -0.000000
RightUpLeg -5.121861 -9.449049 1.202656
RightLeg -4.212933 -0.000000 0.000000
RightFoot -21.289019 -22.058201 21.378696
RightToeBase 22.377560 -0.000000 -0.000000
587
root 18.784750 35.605219 -23.646435 -164.494593 -0.904415 -178.534992
Spine -33.271830 2.011782 1.315430
Head 26.458185 -1.514425 -1.441332
LeftShoulder -33.565546 -50.190712 58.462141
LeftArm 35.284556 -64.096026 -7.165061
LeftForeArm -10.199563 -0.000000 123.286737
LeftHand -20.102056 -0.000000 -19.845901
LeftHandThumb1 -26.253704 0.000000 33.147579
RightShoulder -22.195838 16.634675 -37.146746
RightArm 33.492488 78.735713 -1.134226
RightForeArm -84.448716 -0.000000 140.697033
RightHand -8.263469 -0.000000 42.548853
RightHandThumb1 -24.326973 -0.000000 -32.862282
LeftUpLeg -3.266131 7.251911 -0.028156
LeftLeg -7.707131 -0.000000 0.000000
LeftFoot -22.217859 28.030632 -17.445733
LeftToeBase 23.244225 -0.000000 -0.000000
RightUpLeg -5.122933 -9.453274 1.205816
RightLeg -4.214433 -0.000000 0.000000
RightFoot -21.280412 -22.043960 21.368608
RightToeBase 22.354562 -0.000000 -0.000000
588
root 18.786252 35.604555 -23.648347 -164.494695 -0.903916 -178.541250
Spine -33.283361 1.999626 1.320084
Head 26.460595 -1.517218 -1.465526
LeftShoulder -33.568551 -50.173044 58.465765
LeftArm 35.290150 -64.109346 -7.180071
LeftForeArm -10.219016 -0.000000 123.299029
LeftHand -20.141327 -0.000000 -19.892525
LeftHandThumb1 -26.253704 0.000000 33.147579
RightShoulder -22.185177 16.606370 -37.145542
RightArm 33.397307 78.759639 -1.220049
RightForeArm -84.447860 -0.000000 140.692578
RightHand -8.261742 0.000000 42.498631
RightHandThumb1 -24.326973 -0.000000 -32.862282
LeftUpLeg -3.266790 7.266247 -0.036823
LeftLeg -7.708541 -0.000000 0.000000
LeftFoot -22.225736 28.046490 -17.449288
LeftToeBase 23.266114 -0.000000 -0.000000
RightUpLeg -5.118318 -9.475038 1.206102
RightLeg -4.220204 -0.000000 0.000000
RightFoot -21.290373 -22.030942 21.365820
RightToeBase 22.382764 -0.000000 -0.000000
589
root 18.789555 35.604280 -23.649138 -164.491382 -0.904897 -178.542619
Spine -33.291417 1.989174 1.322268
Head 26.441153 -1.528367 -1.480285
LeftShoulder -33.592386 -50.179000 58.484757
LeftArm 35.222221 -64.077799 -7.130110
LeftForeArm -10.216958 -0.000000 123.317794
LeftHand -20.117205 0.000000 -19.803276
LeftHandThumb1 -26.253704 0.000000 33.147579
RightShoulder -22.188925 16.608076 -37.167086
RightArm 33.260554 78.759387 -1.321077
RightForeArm -84.517308 -0.000000 140.691923
RightHand -8.196666 -0.000000 42.429141
RightHandThumb1 -24.326973 -0.000000 -32.862282
LeftUpLeg -3.268219 7.269296 -0.033691
LeftLeg -7.710628 -0.000000 0.000000
LeftFoot -22.213049 28.052023 -17.435162
LeftToeBase 23.233545 -0.000000 -0.000000
RightUpLeg -5.113823 -9.436673 1.204108
RightLeg -4.228167 -0.000000 0.000000
RightFoot -21.313422 -22.056366 21.390597
RightToeBase 22.356665 -0.000000 -0.000000
